# xmcd
#
# Track frame offsets: 
#        150
#        13523
#        27090
#        44343
#        58682
#        71862
#        82259
#        97591
#        114024
#        123203
#        139723
#        154516
#
# Disc length: 2378 seconds
#
# Revision: 0
# Processed by: cddbd v1.5.1PL2 Copyright (c) Steve Scherf et al.
# Submitted via: ExactAudioCopy v0.95b3
#
DISCID=8e09480c
DTITLE=Jon Langford - Gold Brick
DYEAR=2006
DGENRE=Alt. Country
TTITLE0=Little Bit Of Help
TTITLE1=Workingman's Palace
TTITLE2=Invisible Man
TTITLE3=Buy It Now
TTITLE4=All Roads Lead Back To Me
TTITLE5=Anything Can Happen
TTITLE6=Gold Brick
TTITLE7=Salty Dog
TTITLE8=Gorilla and The Maiden
TTITLE9=Dreams Of Leaving
TTITLE10=Tall Ships
TTITLE11=Lost In America
EXTD=
EXTT0=
EXTT1=
EXTT2=
EXTT3=
EXTT4=
EXTT5=
EXTT6=
EXTT7=
EXTT8=
EXTT9=
EXTT10=
EXTT11=
PLAYORDER=
